<svg width="22" height="22" viewBox="0 0 22 22" fill="none" xmlns="http://www.w3.org/2000/svg">
<path d="M3.99984 5.41481L0.756836 2.17281L2.17184 0.757812L5.41384 4.00081H20.6558C20.8117 4.0008 20.9654 4.03723 21.1047 4.10718C21.244 4.17713 21.365 4.27868 21.4581 4.40371C21.5511 4.52874 21.6137 4.6738 21.6407 4.8273C21.6678 4.9808 21.6586 5.1385 21.6138 5.28781L19.2138 13.2878C19.1521 13.4939 19.0255 13.6746 18.853 13.803C18.6804 13.9315 18.471 14.0008 18.2558 14.0008H5.99984V16.0008H16.9998V18.0008H4.99984C4.73462 18.0008 4.48027 17.8955 4.29273 17.7079C4.10519 17.5204 3.99984 17.266 3.99984 17.0008V5.41481ZM5.99984 6.00081V12.0008H17.5118L19.3118 6.00081H5.99984ZM5.49984 22.0008C5.10201 22.0008 4.72048 21.8428 4.43918 21.5615C4.15787 21.2802 3.99984 20.8986 3.99984 20.5008C3.99984 20.103 4.15787 19.7215 4.43918 19.4402C4.72048 19.1588 5.10201 19.0008 5.49984 19.0008C5.89766 19.0008 6.27919 19.1588 6.5605 19.4402C6.8418 19.7215 6.99984 20.103 6.99984 20.5008C6.99984 20.8986 6.8418 21.2802 6.5605 21.5615C6.27919 21.8428 5.89766 22.0008 5.49984 22.0008ZM17.4998 22.0008C17.102 22.0008 16.7205 21.8428 16.4392 21.5615C16.1579 21.2802 15.9998 20.8986 15.9998 20.5008C15.9998 20.103 16.1579 19.7215 16.4392 19.4402C16.7205 19.1588 17.102 19.0008 17.4998 19.0008C17.8977 19.0008 18.2792 19.1588 18.5605 19.4402C18.8418 19.7215 18.9998 20.103 18.9998 20.5008C18.9998 20.8986 18.8418 21.2802 18.5605 21.5615C18.2792 21.8428 17.8977 22.0008 17.4998 22.0008Z" fill="#161616"/>
</svg>
